<?xml version="1.0" standalone="no"?>
<!DOCTYPE svg PUBLIC "-//W3C//DTD SVG 20010904//EN"
 "http://www.w3.org/TR/2001/REC-SVG-20010904/DTD/svg10.dtd">
<svg version="1.0" xmlns="http://www.w3.org/2000/svg"
 width="400.000000pt" height="400.000000pt" viewBox="0 0 400.000000 400.000000"
 preserveAspectRatio="xMidYMid meet">
<metadata>
Created by potrace 1.14, written by Peter Selinger 2001-2017
</metadata>
<g transform="translate(0.000000,400.000000) scale(0.100000,-0.100000)"
fill="#000000" stroke="none">
<path d="M400 3803 c-83 -29 -146 -84 -188 -165 l-27 -53 0 -1585 0 -1585 25
-50 c39 -79 110 -142 189 -165 65 -20 89 -20 1626 -18 l1560 3 50 25 c64 32
124 92 155 155 l25 50 0 1585 0 1585 -24 47 c-33 67 -87 122 -151 155 l-55 28
-1570 2 c-1405 2 -1575 0 -1615 -14z"/>
</g>
</svg>
